<svg width="239" height="417" viewBox="0 0 239 417" fill="none" xmlns="http://www.w3.org/2000/svg">
<path d="M45.8168 397.091V353.909C45.8168 349.461 47.7504 345.507 50.773 342.74H39.1854C30.8748 342.74 24.1064 349.505 24.1064 357.903V401.085C24.1064 409.479 30.8748 416.249 39.1854 416.249H170.528C174.435 416.249 177.968 414.713 180.651 412.258H60.8969C52.5851 412.258 45.8168 405.489 45.8168 397.091Z" fill="white"/>
<path d="M198.493 51.5564C198.932 49.8225 199.658 48.2506 200.578 46.8448C199.722 46.2331 198.935 45.5363 197.944 45.0988C195.888 44.2399 193.832 43.8105 191.776 43.8105C184.921 43.8105 178.581 48.437 176.782 55.5509L169.739 84.132L170.306 165.938L198.493 51.5564Z" fill="#FFCC99"/>
<path d="M224.71 155.141C225.084 154.521 225.583 154.06 226.015 153.509C223.366 151.888 220.402 150.993 217.393 150.993C214.888 150.993 212.411 151.629 210.116 152.731L202.435 191.898L224.71 155.141Z" fill="#FFCC99"/>
<path d="M77.7743 48.3033C77.7743 47.8739 77.6888 47.4445 77.6888 47.1042C77.6888 43.9118 78.7862 40.9869 80.4962 38.4913C76.9336 35.9877 72.3696 34.9384 67.8018 36.1011C60.8617 37.8148 55.978 43.9848 55.978 51.0946C55.978 51.439 56.0639 51.8643 56.0639 52.2937L60.2107 109.505L87.0276 175.96L77.7743 48.3033Z" fill="#FFCC99"/>
<path d="M135.864 16.9431C136.037 13.3416 137.369 10.0804 139.444 7.43492C136.928 5.91977 134.01 5.00012 130.86 5.00012C121.864 5.00012 114.581 12.0249 114.153 20.9375L112.151 65.1523L129.18 164.564L135.864 16.9431Z" fill="#FFCC99"/>
<path d="M75.118 272.691L27.3111 108.532C26.8821 107.078 26.7116 105.704 26.7116 104.25C26.7116 101.386 27.5526 98.6068 29.0564 96.2166C24.6507 92.9554 18.6545 92.1451 13.311 94.7906C8.08457 97.359 5 102.67 5 108.241C5 109.699 5.17137 111.068 5.59998 112.527L53.4077 276.681V342.74H156.22V338.745H75.118V272.691Z" fill="white"/>
<path d="M178.324 276.681L232.129 175.669C235.128 170.098 234.7 163.248 231.015 158.107C229.631 156.118 227.891 154.655 226.015 153.509C225.584 154.06 225.084 154.521 224.71 155.141L202.435 191.898L210.116 152.731C207.31 154.08 204.79 156.162 202.999 159.132L180.723 195.888L206.94 62.2312C208.105 56.1909 205.418 50.3126 200.578 46.8448C199.658 48.2505 198.932 49.8224 198.493 51.5563L170.306 165.938L169.739 84.132L148.594 169.928L147.566 21.537C147.509 15.521 144.25 10.3274 139.444 7.43481C137.369 10.0802 136.037 13.3415 135.864 16.943L129.18 164.564L112.151 65.1522L107.47 168.559L86.9073 48.526C86.1712 44.2723 83.749 40.7802 80.4959 38.4912C78.7859 40.9868 77.6884 43.9117 77.6884 47.1041C77.6884 47.4444 77.7739 47.8738 77.7739 48.3032L87.0272 175.96L60.2103 109.505L65.3164 179.951L34.1304 102.67C33.0301 99.964 31.2196 97.8169 29.0563 96.2167C27.5525 98.6069 26.7114 101.386 26.7114 104.25C26.7114 105.705 26.882 107.078 27.311 108.532L75.1179 272.691V338.745H156.22V302.386L178.324 276.681Z" fill="#FFCC99"/>
<path d="M107.47 168.559L86.9077 48.526C85.3654 39.6133 76.5407 33.8728 67.8018 36.1009C60.8617 37.8146 55.978 43.9846 55.978 51.0944C55.978 51.4388 56.0639 51.8641 56.0639 52.2936L65.3168 179.951" stroke="#231F20" stroke-width="9" stroke-miterlimit="10"/>
<path d="M148.595 169.928L147.566 21.5371C147.481 12.3692 140.027 5.00012 130.86 5.00012C121.864 5.00012 114.581 12.0249 114.153 20.9375L107.47 168.559" stroke="#231F20" stroke-width="9" stroke-miterlimit="10"/>
<path d="M180.724 195.888L206.941 62.2312C208.311 55.1214 204.542 48.0116 197.945 45.0988C195.888 44.2399 193.832 43.8105 191.776 43.8105C184.922 43.8105 178.582 48.4369 176.783 55.5508L148.595 169.928" stroke="#231F20" stroke-width="9" stroke-miterlimit="10"/>
<path d="M65.3166 179.951L34.1305 102.67C30.7891 94.4462 21.2789 90.8488 13.311 94.7906C8.08457 97.359 5 102.67 5 108.241C5 109.699 5.17137 111.068 5.59998 112.527L53.4077 276.681V342.74H156.22V302.386L178.324 276.681L232.129 175.669C235.128 170.098 234.7 163.248 231.016 158.107C227.674 153.306 222.534 150.993 217.393 150.993C211.824 150.993 206.255 153.735 202.999 159.132L180.723 195.888L140.198 200.344L117.323 244.381" stroke="#231F20" stroke-width="9" stroke-miterlimit="10"/>
<rect x="19" y="340" width="169" height="72" rx="16" fill="white" stroke="#231F20" stroke-width="8"/>
<rect x="39" y="344" width="145" height="64" rx="10" fill="#66CC99"/>
</svg>
