<svg width="202" height="414" viewBox="0 0 202 414" fill="none" xmlns="http://www.w3.org/2000/svg">
<path d="M187.787 33.9193C194.469 36.8321 198.325 44.0311 196.868 51.226L169.023 194.565V194.65L135.695 177.084C131.069 174.601 125.414 176.315 122.843 180.856L119.759 186.337C118.731 188.14 118.131 190.109 117.874 191.993L104.851 192.252C104.851 190.794 104.68 189.254 104.251 187.711L88.1442 126.453L67.496 25.5252C67.2392 24.4111 67.1533 23.297 67.1533 22.183C67.1533 14.984 71.7798 8.47379 78.8054 6.24564C88.0587 3.33282 97.8257 8.90318 100.053 18.3263L134.667 154.641L166.453 44.2012C168.338 37.1764 174.764 32.635 181.618 32.635C183.674 32.635 185.73 33.0645 187.787 33.9193Z" fill="#FFCC99"/>
<path d="M39.9083 185.138V165.263C39.9083 157.894 44.5347 151.299 51.4744 148.811L90.3582 134.871L88.1442 126.453L25.7716 148.811C18.8315 151.299 14.2051 157.894 14.2051 165.263V185.138L42.2215 272.616V338.674H67.9243V272.616L39.9083 185.138Z" fill="white"/>
<path d="M167.052 272.616L189.329 230.807C195.154 219.926 191.042 206.302 180.075 200.476L169.023 194.65L135.695 177.084C131.069 174.601 125.414 176.315 122.843 180.856L119.759 186.337C118.731 188.14 118.131 190.109 117.874 191.993L104.851 192.252C104.851 190.794 104.68 189.254 104.251 187.711L90.3581 134.871L51.4744 148.811C44.5347 151.299 39.9082 157.894 39.9082 165.263V185.138L67.9242 272.616V338.674H145.034V298.32L167.052 272.616Z" fill="#FFCC99"/>
<path d="M38.5372 397.105V353.753C38.5372 345.44 45.3055 338.674 53.6161 338.674H42.2213H27.9133C19.6027 338.674 12.834 345.44 12.834 353.753V397.105C12.834 405.414 19.6027 412.098 27.9133 412.098H53.6161C45.3055 412.098 38.5372 405.414 38.5372 397.105Z" fill="white"/>
<path d="M134.667 154.641L100.053 18.3263C97.8257 8.90324 88.0587 3.33288 78.8054 6.24569C71.7798 8.47384 67.1533 14.984 67.1533 22.183C67.1533 23.2971 67.2392 24.4112 67.496 25.5253L88.1442 126.453" stroke="#231F20" stroke-width="9" stroke-miterlimit="10"/>
<path d="M169.024 194.565L196.868 51.2261C198.325 44.0312 194.469 36.8322 187.787 33.9194C185.73 33.0646 183.674 32.6352 181.618 32.6352C174.764 32.6352 168.338 37.1766 166.453 44.2013L134.667 154.641" stroke="#231F20" stroke-width="9" stroke-miterlimit="10"/>
<path d="M149.574 226.092L136.551 216.154L123.871 206.387C119.331 202.959 117.189 197.393 117.874 191.993C118.131 190.109 118.731 188.14 119.759 186.337L122.843 180.856C125.414 176.315 131.069 174.601 135.695 177.084L169.023 194.65L180.075 200.476C191.042 206.302 195.154 219.926 189.329 230.807L167.053 272.616L145.034 298.32V338.674H42.2215V272.616L14.2051 185.138V165.263C14.2051 157.894 18.8315 151.299 25.7716 148.811L88.1442 126.453L104.251 187.711C104.68 189.254 104.851 190.794 104.851 192.252C104.851 200.731 98.8539 208.36 90.1147 209.899L65.9542 214.27C57.4722 215.814 49.1612 210.928 46.4198 202.874L38.2801 179.657" stroke="#231F20" stroke-width="9" stroke-miterlimit="10"/>
<path d="M136.552 216.154L99.5396 259.336" stroke="#231F20" stroke-width="9" stroke-miterlimit="10"/>
<rect x="4" y="338" width="169" height="72" rx="16" fill="white" stroke="#231F20" stroke-width="8"/>
<rect x="24" y="342" width="145" height="64" rx="10" fill="#66CC99"/>
</svg>
