<svg width="250" height="323" viewBox="0 0 250 323" fill="none" xmlns="http://www.w3.org/2000/svg">
<path d="M67.2016 54.4016L163.073 7.96678C164.062 7.48874 165.078 7.10391 166.095 6.74335C158.738 4.10197 150.498 4.4787 143.259 7.96678L47.3873 54.4016C38.1344 58.943 32.2236 68.3701 32.2236 78.648V249.491H52.0379V78.648C52.0379 68.3701 57.9486 58.943 67.2016 54.4016Z" fill="white"/>
<path d="M244.7 128.769V104.438C244.7 96.6434 240.503 89.3593 233.819 85.3325L208.973 70.5942V46.9474C208.973 39.0678 205.116 31.7838 198.521 27.4166L172.476 9.93573C170.466 8.58669 168.319 7.54144 166.095 6.74335C165.078 7.10391 164.061 7.48874 163.073 7.96678L67.2012 54.4016C57.9483 58.943 52.0376 68.3701 52.0376 78.648V249.491H153.111H153.285V198.17H173.099H173.16L233.478 151.561C240.503 146.076 244.7 137.682 244.7 128.769Z" fill="#FFCC99"/>
<path d="M31.8184 307.836V264.569C31.8184 256.256 38.5839 249.491 46.8969 249.491H32.2235H27.0825C18.7694 249.491 12 256.256 12 264.569V307.836C12 316.145 18.7694 322.915 27.0825 322.915H46.8969C38.5839 322.915 31.8184 316.145 31.8184 307.836Z" fill="white"/>
<path d="M153.111 249.491H32.2236V78.648C32.2236 68.3701 38.1344 58.943 47.3873 54.4016L143.259 7.9668C152.682 3.42542 163.823 4.11013 172.476 9.93575L198.521 27.4166C205.116 31.7838 208.973 39.0679 208.973 46.9474V70.5942V106.066C208.973 115.49 203.747 124.058 195.349 128.255L139.062 156.872C131.178 160.899 121.84 160.555 114.301 156.103L79.1728 135.195C72.1481 131.083 67.8619 123.543 67.8619 115.404C67.8619 109.579 70.2643 104.353 74.0319 100.496C77.8036 96.7284 83.1146 94.4152 88.8552 94.4152H104.278" stroke="#231F20" stroke-width="9" stroke-miterlimit="10"/>
<path d="M93.3076 198.17H173.161L233.479 151.561C240.504 146.076 244.701 137.682 244.701 128.769V104.438C244.701 96.6434 240.504 89.3593 233.819 85.3324L208.973 70.5942" stroke="#231F20" stroke-width="9" stroke-miterlimit="10"/>
<path d="M153.285 249.491V198.17" stroke="#231F20" stroke-width="9" stroke-miterlimit="10"/>
<path d="M104.278 70.5943V117.288" stroke="#231F20" stroke-width="9" stroke-miterlimit="10"/>
<rect x="4" y="247" width="169" height="72" rx="16" fill="white" stroke="#231F20" stroke-width="8"/>
<rect x="24" y="251" width="145" height="64" rx="10" fill="#66CC99"/>
</svg>
